<?xml version="1.0" encoding="iso-8859-1"?>
<svg width="24px" height="24px" viewBox="0 0 30 24" version="1.1" xmlns="http://www.w3.org/2000/svg" xmlns:xlink="http://www.w3.org/1999/xlink">
  <title>sovport-logo-black</title>
  <desc>Created with Sketch.</desc>
  <defs></defs>

  <g
    id="sovport-logo-copy"
    transform="translate(14.407895, 12.000000) rotate(-360.000000) translate(-14.407895, -12.000000) "
    fill="#1890ff"
  >
    <g id="top-half">
      <path
        d="M9.98362918,0 L20.5675964,1.11022302e-15 C20.6971735,1.08642009e-15 20.8185723,0.0633257317 20.8927164,0.169593676 L28.3771402,10.8967276 C28.5024201,11.0762864 28.4584184,11.3234071 28.2788595,11.448687 C28.2123246,11.495109 28.133149,11.52 28.0520201,11.52 L17.4680529,11.52 C17.3384758,11.52 17.217077,11.4566743 17.1429329,11.3504063 L9.6585091,0.623272444 C9.53322917,0.443713583 9.57723093,0.196592914 9.75678979,0.0713129821 C9.82332465,0.0248909753 9.90250033,-3.73674931e-16 9.98362918,-3.88578059e-16 Z"
        id="right-top-half"
      ></path>
      <path
        d="M7.76005896,1.09280367 L1.01351697,10.8546391 C0.889037274,11.0347537 0.934138228,11.2816761 1.11425277,11.4061558 C1.1804985,11.4519391 1.25911612,11.4764626 1.33964321,11.4764626 L11.8001586,11.4764626 C11.9303592,11.4764626 12.0522598,11.4125297 12.1262848,11.30542 C12.6835709,10.4990609 13.240857,9.69270186 13.7981431,8.88634281 C12.0028685,6.28850014 10.2075938,3.69065747 8.41231912,1.0928148 L8.41231912,1.0928148 C8.28784557,0.912696007 8.04092468,0.867586627 7.86080589,0.992060181 C7.82141521,1.01928165 7.78728177,1.05341393 7.76005896,1.09280367 Z"
        id="left-top-half"
      ></path>
    </g>
    <g
      id="top-half-copy"
      transform="translate(14.407895, 18.240000) scale(1, -1) translate(-14.407895, -18.240000) translate(0.000000, 12.480000)"
    >
      <path
        d="M9.98362918,0 L20.5675964,1.11022302e-15 C20.6971735,1.08642009e-15 20.8185723,0.0633257317 20.8927164,0.169593676 L28.3771402,10.8967276 C28.5024201,11.0762864 28.4584184,11.3234071 28.2788595,11.448687 C28.2123246,11.495109 28.133149,11.52 28.0520201,11.52 L17.4680529,11.52 C17.3384758,11.52 17.217077,11.4566743 17.1429329,11.3504063 L9.6585091,0.623272444 C9.53322917,0.443713583 9.57723093,0.196592914 9.75678979,0.0713129821 C9.82332465,0.0248909753 9.90250033,-3.73674931e-16 9.98362918,-3.88578059e-16 Z"
        id="right-top-half"
      ></path>
      <path
        d="M7.76005896,1.09280367 L1.01351697,10.8546391 C0.889037274,11.0347537 0.934138228,11.2816761 1.11425277,11.4061558 C1.1804985,11.4519391 1.25911612,11.4764626 1.33964321,11.4764626 L11.8001586,11.4764626 C11.9303592,11.4764626 12.0522598,11.4125297 12.1262848,11.30542 C12.6835709,10.4990609 13.240857,9.69270186 13.7981431,8.88634281 C12.0028685,6.28850014 10.2075938,3.69065747 8.41231912,1.0928148 L8.41231912,1.0928148 C8.28784557,0.912696007 8.04092468,0.867586627 7.86080589,0.992060181 C7.82141521,1.01928165 7.78728177,1.05341393 7.76005896,1.09280367 Z"
        id="left-top-half"
      ></path>
    </g>
  </g>
</svg>
