<?xml version="1.0" encoding="iso-8859-1"?>
<!-- Generator: Adobe Illustrator 19.0.0, SVG Export Plug-In . SVG Version: 6.00 Build 0)  -->
<svg version="1.1" id="Layer_1" xmlns="http://www.w3.org/2000/svg" xmlns:xlink="http://www.w3.org/1999/xlink" x="0px" y="0px"
	 viewBox="0 0 511.999 511.999" style="enable-background:new 0 0 511.999 511.999;" xml:space="preserve">
<g>
	<path style="fill:#2D527C;" d="M462.392,477.531H49.607C22.254,477.531,0,455.277,0,427.924V84.075
		c0-27.353,22.254-49.607,49.607-49.607h270.89c7.799,0,14.124,6.323,14.124,14.124s-6.325,14.124-14.124,14.124H49.607
		c-11.777,0-21.359,9.58-21.359,21.359v343.849c0,11.777,9.582,21.359,21.359,21.359h412.785c11.777,0,21.359-9.582,21.359-21.359
		V84.075c0-11.777-9.582-21.359-21.359-21.359h-60.567c-7.799,0-14.124-6.323-14.124-14.124s6.325-14.124,14.124-14.124h60.567
		c27.353,0,49.607,22.254,49.607,49.607v343.849C512,455.277,489.746,477.531,462.392,477.531z"/>
	<path style="fill:#2D527C;" d="M411.687,415.309H138.569c-7.801,0-14.124-6.323-14.124-14.124c0-7.801,6.323-14.124,14.124-14.124
		h273.118c5.428,0,9.843-4.415,9.843-9.843V134.781c0-5.428-4.415-9.843-9.843-9.843H138.569c-7.801,0-14.124-6.323-14.124-14.124
		s6.323-14.124,14.124-14.124h273.118c21.003,0,38.091,17.087,38.091,38.091v242.437
		C449.779,398.222,432.69,415.309,411.687,415.309z"/>
	<path style="fill:#2D527C;" d="M76.345,415.309c-7.801,0-14.124-6.323-14.124-14.124V110.813c0-7.801,6.323-14.124,14.124-14.124
		s14.124,6.323,14.124,14.124v290.372C90.47,408.986,84.146,415.309,76.345,415.309z"/>
</g>
<path style="fill:#CEE8FA;" d="M326.107,157.618c-54.334,0-98.381,44.046-98.381,98.381s44.046,98.381,98.381,98.381
	s98.381-44.046,98.381-98.381C424.488,201.664,380.442,157.618,326.107,157.618z M326.107,292.802
	c-20.326,0-36.803-16.477-36.803-36.803s16.477-36.803,36.803-36.803s36.803,16.477,36.803,36.803
	C362.911,276.325,346.434,292.802,326.107,292.802z"/>
<path style="fill:#2D527C;" d="M326.107,368.505c-62.036,0-112.505-50.47-112.505-112.505s50.469-112.505,112.505-112.505
	S438.612,193.965,438.612,256S388.144,368.505,326.107,368.505z M326.107,171.742c-46.46,0-84.256,37.798-84.256,84.256
	s37.798,84.256,84.256,84.256s84.256-37.798,84.256-84.256S372.568,171.742,326.107,171.742z M326.107,306.926
	c-28.082,0-50.928-22.846-50.928-50.928s22.846-50.928,50.928-50.928s50.928,22.846,50.928,50.928S354.189,306.926,326.107,306.926z
	 M326.107,233.319c-12.506,0-22.679,10.174-22.679,22.679s10.174,22.679,22.679,22.679s22.679-10.174,22.679-22.679
	C348.787,243.493,338.613,233.319,326.107,233.319z"/>
<rect x="76.341" y="308.57" style="fill:#CEE8FA;" width="62.217" height="45.714"/>
<path style="fill:#2D527C;" d="M138.569,368.416H76.345c-7.801,0-14.124-6.323-14.124-14.124v-45.714
	c0-7.801,6.323-14.124,14.124-14.124h62.224c7.801,0,14.124,6.323,14.124,14.124v45.714
	C152.694,362.092,146.37,368.416,138.569,368.416z M90.47,340.167h33.976v-17.466H90.47V340.167z"/>
<rect x="76.341" y="157.71" style="fill:#CEE8FA;" width="62.217" height="45.714"/>
<g>
	<path style="fill:#2D527C;" d="M138.569,217.546H76.345c-7.801,0-14.124-6.323-14.124-14.124v-45.714
		c0-7.801,6.323-14.124,14.124-14.124h62.224c7.801,0,14.124,6.323,14.124,14.124v45.714
		C152.694,211.222,146.37,217.546,138.569,217.546z M90.47,189.297h33.976v-17.466H90.47V189.297z"/>
	<path style="fill:#2D527C;" d="M259.718,336.512c-3.616,0-7.229-1.379-9.987-4.137c-5.515-5.516-5.515-14.459,0-19.974
		l40.365-40.365c5.518-5.515,14.459-5.515,19.976,0c5.517,5.516,5.515,14.459,0,19.974l-40.365,40.365
		C266.947,335.134,263.333,336.512,259.718,336.512z"/>
	<path style="fill:#2D527C;" d="M354.73,241.5c-3.616,0-7.229-1.379-9.987-4.137c-5.515-5.515-5.515-14.459,0-19.974l37.767-37.767
		c5.52-5.515,14.46-5.514,19.976,0c5.515,5.515,5.515,14.459,0,19.974l-37.767,37.767C361.959,240.122,358.343,241.5,354.73,241.5z"
		/>
	<path style="fill:#2D527C;" d="M296.827,240.842c-3.616,0-7.229-1.379-9.987-4.137l-37.107-37.107
		c-5.515-5.515-5.515-14.459,0-19.976c5.517-5.515,14.459-5.515,19.976,0l37.107,37.107c5.516,5.515,5.516,14.459,0,19.976
		C304.055,239.463,300.441,240.842,296.827,240.842z"/>
	<path style="fill:#2D527C;" d="M392.497,336.512c-3.616,0-7.229-1.379-9.987-4.137l-37.648-37.648
		c-5.515-5.515-5.515-14.459,0-19.976c5.517-5.515,14.457-5.515,19.976,0l37.648,37.648c5.515,5.515,5.515,14.459,0,19.976
		C399.726,335.134,396.113,336.512,392.497,336.512z"/>
</g>
<g>
</g>
<g>
</g>
<g>
</g>
<g>
</g>
<g>
</g>
<g>
</g>
<g>
</g>
<g>
</g>
<g>
</g>
<g>
</g>
<g>
</g>
<g>
</g>
<g>
</g>
<g>
</g>
<g>
</g>
</svg>
